<svg width="43" height="42" viewBox="0 0 43 42" fill="none" xmlns="http://www.w3.org/2000/svg">
<rect width="43" height="42" rx="8" fill="#A9A9A9"/>
<path d="M9 11.7879C9 10.9798 9.28153 10.3131 9.84459 9.78788C10.4077 9.26263 11.1396 9 12.0405 9C12.9254 9 13.6412 9.25859 14.1882 9.77576C14.7513 10.3091 15.0328 11.004 15.0328 11.8606C15.0328 12.6364 14.7593 13.2828 14.2124 13.8C13.6493 14.3333 12.9093 14.6 11.9923 14.6H11.9681C11.0833 14.6 10.3674 14.3333 9.82046 13.8C9.27349 13.2667 9 12.596 9 11.7879ZM9.31371 33V16.8061H14.6708V33H9.31371ZM17.639 33H22.9961V23.9576C22.9961 23.3919 23.0605 22.9556 23.1892 22.6485C23.4144 22.099 23.7563 21.6343 24.2148 21.2545C24.6733 20.8747 25.2484 20.6848 25.9402 20.6848C27.742 20.6848 28.6429 21.9051 28.6429 24.3455V33H34V23.7152C34 21.3232 33.4369 19.5091 32.3108 18.2727C31.1847 17.0364 29.6966 16.4182 27.8465 16.4182C25.7712 16.4182 24.1544 17.3152 22.9961 19.1091V19.1576H22.972L22.9961 19.1091V16.8061H17.639C17.6712 17.3232 17.6873 18.9313 17.6873 21.6303C17.6873 24.3293 17.6712 28.1192 17.639 33Z" fill="black"/>
</svg>
